<?xml version="1.0" standalone="no"?>
<!DOCTYPE svg PUBLIC "-//W3C//DTD SVG 20010904//EN"
 "http://www.w3.org/TR/2001/REC-SVG-20010904/DTD/svg10.dtd">
<svg version="1.0" xmlns="http://www.w3.org/2000/svg"
 width="540.000000pt" height="184.000000pt" viewBox="0 0 540.000000 184.000000"
 preserveAspectRatio="xMidYMid meet">

<g transform="translate(0.000000,184.000000) scale(0.100000,-0.100000)"
fill="#000000" stroke="none">
<path d="M4440 1386 c0 -7 12 -21 26 -31 22 -14 28 -15 36 -4 7 11 8 11 6 -1
-2 -9 13 -36 33 -60 40 -50 69 -102 68 -122 0 -7 -5 -1 -11 15 -5 15 -14 27
-19 27 -6 0 -8 4 -5 9 3 5 -2 11 -12 13 -9 3 -21 6 -27 8 -5 1 -15 -8 -22 -20
l-12 -24 -6 26 c-5 19 -11 24 -26 21 -10 -3 -17 -9 -14 -13 3 -4 -2 -10 -10
-14 -9 -3 -15 0 -15 10 0 10 -5 12 -12 7 -19 -11 -37 -12 -43 -3 -3 5 -12 7
-20 3 -8 -3 -15 -1 -15 3 0 5 -18 10 -41 11 -22 2 -52 12 -66 23 -26 20 -59
28 -48 11 3 -6 -3 -15 -14 -20 -27 -15 -71 -14 -71 1 0 7 -15 -3 -34 -21 -19
-19 -32 -40 -29 -47 3 -9 0 -12 -9 -9 -21 8 -43 -89 -34 -149 20 -134 103
-226 231 -257 28 -6 55 -16 60 -22 7 -6 2 -7 -15 -3 -54 15 -70 14 -70 -5 0
-12 10 -20 33 -24 17 -4 40 -9 50 -11 11 -4 17 0 17 10 0 20 14 20 33 1 15
-14 45 -13 92 5 14 5 25 7 25 4 0 -11 97 61 128 95 58 63 86 133 86 220 1 87
-7 128 -34 180 -26 48 -45 71 -59 71 -6 0 -10 4 -8 8 3 11 -49 54 -90 76 -27
14 -33 14 -33 2z m35 -216 c3 -5 -1 -10 -9 -10 -8 0 -18 5 -21 10 -3 6 1 10 9
10 8 0 18 -4 21 -10z m151 -108 c-4 -91 -27 -145 -90 -210 -40 -43 -102 -82
-128 -82 -7 0 7 10 32 21 62 28 131 103 154 168 12 33 19 79 18 122 0 39 4 67
9 63 5 -3 8 -40 5 -82z m-293 -309 c-7 -2 -19 -2 -25 0 -7 3 -2 5 12 5 14 0
19 -2 13 -5z"/>
<path d="M1085 879 c-4 -6 -5 -12 -2 -15 2 -3 7 2 10 11 7 17 1 20 -8 4z"/>
<path d="M1080 835 c0 -8 4 -15 10 -15 5 0 7 7 4 15 -4 8 -8 15 -10 15 -2 0
-4 -7 -4 -15z"/>
<path d="M4297 683 c-4 -3 -7 -14 -7 -23 0 -30 -37 -52 -111 -66 -81 -15 -78
-14 -84 -43 -12 -62 29 -76 225 -76 110 0 165 4 188 14 31 13 33 17 30 55 -2
23 -7 41 -13 41 -5 0 -14 3 -20 6 -5 3 -30 7 -55 8 -55 3 -88 23 -102 62 -9
27 -35 38 -51 22z"/>
</g>
</svg>
